<svg width="806" height="206" viewBox="0 0 806 206" fill="none" xmlns="http://www.w3.org/2000/svg">
  <g clip-path="url(#a)">
    <path d="M3.939 81.969c-5.99 5.671-5.04 13.676 2.103 17.784l13.477 7.753c7.146 4.112 11.442 14.043 9.547 22.067l-16.227 68.794c-1.893 8.024 1.458 9.95 7.443 4.279l83.134-78.716c5.985-5.671 5.038-13.672-2.108-17.784l-13.475-7.753c-7.144-4.112-11.442-14.045-9.551-22.065L94.515 7.534c1.89-8.022-1.457-9.946-7.448-4.279L3.94 81.97Z" fill="#FB8D93"/>
    <path d="M197.094 79.325h-28.96v17.723h25.661v14.104h-25.661v17.664h28.96v14.323H151.81V65.067h45.284v14.258Z" fill="#369FFF"/>
    <path d="m249.24 65.063-39.038 78.076h78.076L249.24 65.063Zm0 14.552 22.004 44.005h-29.46l3.253-6.506h15.678L249.24 94.159l-17.981 35.967h43.238l3.253 6.506h-57.019l28.509-57.017Z" fill="#FB8D93"/>
    <path d="M327.526 143c-16.064 0-28.076-7.67-30.526-21.088l13.084-3.031c1.385 8.73 8.561 13.52 17.916 13.52 7.395 0 14.099-3.139 13.989-11.121-.108-8.309-9.306-10.708-19.25-13.526-11.491-3.359-23.289-7.191-23.289-21.136C299.45 72.453 311.038 65 325.451 65c13.294 0 25.899 5.59 28.825 19.218l-12.287 3.091c-1.703-8.096-7.977-11.66-15.9-11.66-7.074 0-13.778 3.035-13.778 10.755 0 7.028 8.033 9.215 17.234 11.765 11.862 3.299 25.58 7.351 25.58 22.571 0 15.708-13.136 22.26-27.599 22.26ZM425 66.064l-24.941 39.662v36.26h-12.763v-36.091l-25.05-39.825h14.257l17.118 28.376 17.183-28.376H425v-.006Z" fill="#369FFF"/>
  </g>
  <path d="M615.038 66 576 144.076h78.076L615.038 66Zm0 14.552 22.004 44.005h-29.46l3.253-6.507h15.678l-11.475-22.954-17.981 35.967h43.238l3.254 6.506h-57.02l28.509-57.017Z" fill="#FB8D93"/>
  <path d="M473.257 132.295h28.099V144H459V66h14.26l-.003 66.295ZM564 77.651h-33.05v21.602h29.231v11.54h-29.238v21.502h33.05V144h-47.484V66H564v11.65ZM706.432 144l-21.061-34.782h-8.767V144H663V66h28.177c17.593 0 25.334 10.12 25.334 22.644 0 10.883-6.715 18.215-17.475 20.074L722.433 144h-16.001Zm-29.828-66.95v22.484h12.58c9.967 0 14.235-4.486 14.235-11.159 0-6.619-4.273-11.325-14.235-11.325h-12.58ZM792.394 66H806v78h-15.261l-39.842-59.512V144h-13.494V66h15.086l39.907 59.128V66h-.002Z" fill="#00C6BA"/>
  <defs>
    <clipPath id="a">
      <path fill="#fff" d="M0 0h425.4v205.903H0z"/>
    </clipPath>
  </defs>
</svg>
